<svg width="234" height="69" viewBox="0 0 234 69" fill="none" xmlns="http://www.w3.org/2000/svg">
<path d="M13.44 0.799995V68H0.672V0.799995H13.44ZM34.6935 0.799995C39.6855 0.799995 43.8135 4.928 43.8135 9.92V68H30.9495V15.488V12.608C30.9495 12.128 30.5655 11.648 30.0855 11.552C29.5095 11.456 29.0295 11.936 29.0295 12.512V68H16.0695V42.368C16.0695 40.16 16.0695 12.32 16.0695 10.112C16.0695 5.024 20.1975 0.799995 25.2855 0.799995H34.6935ZM45.9982 0.799995H71.3423V12.704H65.1022V68H52.2382V12.704H45.9982V0.799995ZM86.7307 11.552V29.888H94.9867V39.008H86.7307V57.344H94.9867V68H73.7707V42.368C73.7707 40.16 73.7707 3.10399 73.7707 0.799995H94.9867V11.552H86.7307ZM125.256 26.528C125.256 28.736 124.392 30.848 122.952 32.48L121.128 34.496L122.952 36.416C124.392 38.048 125.256 40.16 125.256 42.368V68H112.2V39.008H110.28V68V68.096H97.512V68V0.895994V0.799995H115.944C121.032 0.799995 125.256 5.024 125.256 10.112V26.528ZM112.2 29.888V11.552H110.28V12.608V15.488V29.888H112.2ZM140.87 11.552V29.888H149.126V39.008H140.87V68H127.91V42.368C127.91 40.16 127.91 3.10399 127.91 0.799995H149.126V11.552H140.87ZM170.179 0.799995C175.267 0.799995 179.395 4.928 179.395 10.016V68H166.339V39.008H164.419V68H151.651V10.016C151.651 4.928 155.683 0.799995 160.771 0.799995H170.179ZM166.339 29.888V12.512C166.339 11.936 165.859 11.456 165.283 11.552C164.803 11.648 164.419 12.128 164.419 12.608V15.488V29.888H166.339ZM196.928 27.68V15.488V12.608C196.928 12.128 196.544 11.648 196.064 11.552C195.488 11.456 195.008 11.936 195.008 12.512V56.384C195.008 56.864 195.392 57.344 195.968 57.344C196.448 57.344 196.928 56.864 196.928 56.384V41.216H209.792V59.072C209.792 63.968 205.664 68 200.768 68H191.264C186.176 68 182.048 63.872 182.048 58.784V42.368C182.048 40.16 182.048 12.32 182.048 10.112C182.048 5.024 186.176 0.799995 191.264 0.799995H200.672C205.664 0.799995 209.792 4.928 209.792 9.92V27.68H196.928ZM225.312 11.552V29.888H233.568V39.008H225.312V57.344H233.568V68H212.352V42.368C212.352 40.16 212.352 3.10399 212.352 0.799995H233.568V11.552H225.312Z" fill="white"/>
</svg>
